<mxfile host="app.diagrams.net" modified="2022-12-08T07:08:45.246Z" agent="5.0 (Windows NT 10.0; Win64; x64) AppleWebKit/537.36 (KHTML, like Gecko) Chrome/108.0.0.0 Safari/537.36" version="20.6.0" etag="dR_uhySkt9JMWbTfnzHt" type="github">
  <diagram id="I9pjiQGDIySaUkDOvWce" name="系统流程图">
    <mxGraphModel dx="1422" dy="762" grid="1" gridSize="10" guides="1" tooltips="1" connect="1" arrows="1" fold="1" page="1" pageScale="1" pageWidth="827" pageHeight="1169" math="0" shadow="0">
      <root>
        <mxCell id="0" />
        <mxCell id="1" parent="0" />
        <mxCell id="8vSvjyHVzhw1EFq-KsZb-18" style="edgeStyle=orthogonalEdgeStyle;rounded=0;orthogonalLoop=1;jettySize=auto;html=1;exitX=1;exitY=0.5;exitDx=0;exitDy=0;exitPerimeter=0;entryX=0;entryY=0.5;entryDx=0;entryDy=0;" edge="1" parent="1" source="8vSvjyHVzhw1EFq-KsZb-1" target="8vSvjyHVzhw1EFq-KsZb-2">
          <mxGeometry relative="1" as="geometry" />
        </mxCell>
        <mxCell id="8vSvjyHVzhw1EFq-KsZb-1" value="管理员账号&lt;br&gt;登录" style="strokeWidth=2;html=1;shape=mxgraph.flowchart.start_1;whiteSpace=wrap;" vertex="1" parent="1">
          <mxGeometry x="25" y="140" width="100" height="60" as="geometry" />
        </mxCell>
        <mxCell id="8vSvjyHVzhw1EFq-KsZb-8" value="" style="edgeStyle=orthogonalEdgeStyle;rounded=0;orthogonalLoop=1;jettySize=auto;html=1;" edge="1" parent="1" source="8vSvjyHVzhw1EFq-KsZb-2" target="8vSvjyHVzhw1EFq-KsZb-7">
          <mxGeometry relative="1" as="geometry" />
        </mxCell>
        <mxCell id="8vSvjyHVzhw1EFq-KsZb-2" value="新增机构" style="rounded=1;whiteSpace=wrap;html=1;absoluteArcSize=1;arcSize=14;strokeWidth=2;" vertex="1" parent="1">
          <mxGeometry x="180" y="145" width="110" height="50" as="geometry" />
        </mxCell>
        <mxCell id="8vSvjyHVzhw1EFq-KsZb-6" style="edgeStyle=orthogonalEdgeStyle;rounded=0;orthogonalLoop=1;jettySize=auto;html=1;exitX=0.5;exitY=1;exitDx=0;exitDy=0;" edge="1" parent="1" source="8vSvjyHVzhw1EFq-KsZb-4" target="8vSvjyHVzhw1EFq-KsZb-1">
          <mxGeometry relative="1" as="geometry" />
        </mxCell>
        <mxCell id="8vSvjyHVzhw1EFq-KsZb-4" value="管理员建立设备体系" style="verticalLabelPosition=bottom;verticalAlign=top;html=1;shape=hexagon;perimeter=hexagonPerimeter2;arcSize=6;size=0.2857142857142857;" vertex="1" parent="1">
          <mxGeometry x="30" y="20" width="90" height="60" as="geometry" />
        </mxCell>
        <mxCell id="8vSvjyHVzhw1EFq-KsZb-13" style="edgeStyle=orthogonalEdgeStyle;rounded=0;orthogonalLoop=1;jettySize=auto;html=1;exitX=1;exitY=0.5;exitDx=0;exitDy=0;" edge="1" parent="1" source="8vSvjyHVzhw1EFq-KsZb-7" target="8vSvjyHVzhw1EFq-KsZb-12">
          <mxGeometry relative="1" as="geometry" />
        </mxCell>
        <mxCell id="8vSvjyHVzhw1EFq-KsZb-7" value="新增护工" style="whiteSpace=wrap;html=1;rounded=1;arcSize=14;strokeWidth=2;" vertex="1" parent="1">
          <mxGeometry x="350" y="145" width="115" height="50" as="geometry" />
        </mxCell>
        <mxCell id="8vSvjyHVzhw1EFq-KsZb-9" value="" style="strokeWidth=2;html=1;shape=mxgraph.flowchart.annotation_2;align=left;labelPosition=right;pointerEvents=1;rotation=-90;" vertex="1" parent="1">
          <mxGeometry x="210" y="70" width="50" height="100" as="geometry" />
        </mxCell>
        <mxCell id="8vSvjyHVzhw1EFq-KsZb-10" value="机构名称" style="text;html=1;align=center;verticalAlign=middle;resizable=0;points=[];autosize=1;strokeColor=none;fillColor=none;" vertex="1" parent="1">
          <mxGeometry x="155" y="65" width="70" height="30" as="geometry" />
        </mxCell>
        <mxCell id="8vSvjyHVzhw1EFq-KsZb-11" value="机构代码" style="text;html=1;align=center;verticalAlign=middle;resizable=0;points=[];autosize=1;strokeColor=none;fillColor=none;" vertex="1" parent="1">
          <mxGeometry x="245" y="65" width="70" height="30" as="geometry" />
        </mxCell>
        <mxCell id="8vSvjyHVzhw1EFq-KsZb-12" value="新增设备" style="whiteSpace=wrap;html=1;rounded=1;arcSize=14;strokeWidth=2;" vertex="1" parent="1">
          <mxGeometry x="520" y="145" width="115" height="50" as="geometry" />
        </mxCell>
        <mxCell id="8vSvjyHVzhw1EFq-KsZb-14" value="" style="strokeWidth=2;html=1;shape=mxgraph.flowchart.annotation_2;align=left;labelPosition=right;pointerEvents=1;rotation=-90;" vertex="1" parent="1">
          <mxGeometry x="382.5" y="70" width="50" height="100" as="geometry" />
        </mxCell>
        <mxCell id="8vSvjyHVzhw1EFq-KsZb-15" value="工号" style="text;html=1;align=center;verticalAlign=middle;resizable=0;points=[];autosize=1;strokeColor=none;fillColor=none;" vertex="1" parent="1">
          <mxGeometry x="332.5" y="65" width="50" height="30" as="geometry" />
        </mxCell>
        <mxCell id="8vSvjyHVzhw1EFq-KsZb-16" value="姓名" style="text;html=1;align=center;verticalAlign=middle;resizable=0;points=[];autosize=1;strokeColor=none;fillColor=none;" vertex="1" parent="1">
          <mxGeometry x="382.5" y="65" width="50" height="30" as="geometry" />
        </mxCell>
        <mxCell id="8vSvjyHVzhw1EFq-KsZb-17" value="机构" style="text;html=1;align=center;verticalAlign=middle;resizable=0;points=[];autosize=1;strokeColor=none;fillColor=none;" vertex="1" parent="1">
          <mxGeometry x="432.5" y="65" width="50" height="30" as="geometry" />
        </mxCell>
        <mxCell id="8vSvjyHVzhw1EFq-KsZb-19" value="" style="strokeWidth=2;html=1;shape=mxgraph.flowchart.annotation_2;align=left;labelPosition=right;pointerEvents=1;rotation=-90;" vertex="1" parent="1">
          <mxGeometry x="552.5" y="70" width="50" height="100" as="geometry" />
        </mxCell>
        <mxCell id="8vSvjyHVzhw1EFq-KsZb-20" value="设备号" style="text;html=1;align=center;verticalAlign=middle;resizable=0;points=[];autosize=1;strokeColor=none;fillColor=none;" vertex="1" parent="1">
          <mxGeometry x="500" y="65" width="60" height="30" as="geometry" />
        </mxCell>
        <mxCell id="8vSvjyHVzhw1EFq-KsZb-21" value="识别码" style="text;html=1;align=center;verticalAlign=middle;resizable=0;points=[];autosize=1;strokeColor=none;fillColor=none;" vertex="1" parent="1">
          <mxGeometry x="500" y="10" width="60" height="30" as="geometry" />
        </mxCell>
        <mxCell id="8vSvjyHVzhw1EFq-KsZb-22" value="护工工号" style="text;html=1;align=center;verticalAlign=middle;resizable=0;points=[];autosize=1;strokeColor=none;fillColor=none;" vertex="1" parent="1">
          <mxGeometry x="602.5" y="65" width="70" height="30" as="geometry" />
        </mxCell>
        <mxCell id="8vSvjyHVzhw1EFq-KsZb-23" value="启用状态" style="text;html=1;align=center;verticalAlign=middle;resizable=0;points=[];autosize=1;strokeColor=none;fillColor=none;" vertex="1" parent="1">
          <mxGeometry x="500" y="40" width="70" height="30" as="geometry" />
        </mxCell>
      </root>
    </mxGraphModel>
  </diagram>
</mxfile>
